<svg version="1.1" xmlns="http://www.w3.org/2000/svg" width="512px" height="512px" transform="rotate(0) scale(1, 1)">
<path d="M0 0 C1.81577671 -0.01403992 1.81577671 -0.01403992 3.66823578 -0.02836347 C6.99355301 -0.04801291 10.31680709 -0.04113961 13.64199448 -0.02244616 C17.24129724 -0.00878136 20.84042926 -0.02986864 24.43969727 -0.04632568 C31.47675662 -0.07291652 38.51343063 -0.06728285 45.55050468 -0.04984984 C51.27287822 -0.03626422 56.99514424 -0.03447702 62.7175293 -0.04099274 C63.53394567 -0.04191214 64.35036204 -0.04283153 65.19151831 -0.04377879 C66.85038315 -0.04569727 68.50924797 -0.04764255 70.16811275 -0.04961434 C85.70006336 -0.06669753 101.23180102 -0.04709274 116.7637167 -0.01481214 C130.07240209 0.01199214 143.3807734 0.00733525 156.68945312 -0.02032471 C172.16822728 -0.05248009 187.64681509 -0.06504982 203.12561798 -0.04665112 C204.77816261 -0.04473996 206.43070727 -0.04285373 208.08325195 -0.04099274 C208.89620019 -0.04006708 209.70914844 -0.03914143 210.54673147 -0.03818773 C216.2580067 -0.03302102 221.9691631 -0.0417215 227.68041992 -0.05587006 C234.64669395 -0.07274938 241.61256269 -0.0680375 248.57879066 -0.03618559 C252.12885448 -0.02048508 255.67824414 -0.01412288 259.228302 -0.03408051 C263.08617101 -0.05543955 266.94295151 -0.02982944 270.80078125 0 C271.90936241 -0.01338433 273.01794357 -0.02676866 274.1601181 -0.04055858 C283.07974023 0.09266379 290.65897086 2.78072782 297.5542984 8.57044911 C306.00039282 17.45282939 306.99083917 27.38606251 306.9083252 39.17536926 C306.91294103 40.61969535 306.91929851 42.06401672 306.92723417 43.50832838 C306.94385853 47.45499623 306.93571267 51.40127482 306.9232893 55.34794366 C306.91421214 59.61332609 306.92822211 63.87864315 306.93920898 68.14401245 C306.9569736 76.49306856 306.95316247 84.84198062 306.94155842 93.19104231 C306.93251204 99.98224147 306.93130533 106.77340035 306.93565369 113.56460381 C306.93626662 114.53249241 306.93687955 115.50038102 306.93751106 116.49759958 C306.93879002 118.46415382 306.94008688 120.43070805 306.94140142 122.39726227 C306.9528023 140.83024396 306.93970345 159.26314603 306.91819996 177.69611465 C306.90034926 193.48590595 306.9034173 209.27557951 306.921875 225.06536865 C306.94332466 243.42310998 306.95168287 261.78078142 306.93942595 280.13853353 C306.93815184 282.09985219 306.93689435 284.06117087 306.93565369 286.02248955 C306.93472803 287.46978063 306.93472803 287.46978063 306.93378368 288.94630991 C306.93034157 295.71968197 306.9361349 302.49300944 306.9455719 309.26637459 C306.95683973 317.53534173 306.95365277 325.80415717 306.93244892 334.07310713 C306.9219994 338.2858968 306.91771101 342.49843439 306.93104553 346.71122169 C307.02000655 377.29121047 307.02000655 377.29121047 303.35485077 389.45693111 C301.12862385 397.16559751 301.21768292 405.04711113 301.21289062 413.01190186 C301.20064453 414.06764404 301.18839844 415.12338623 301.17578125 416.21112061 C301.16389945 422.68274331 301.76686409 428.74316682 302.93530273 435.10565186 C304.0783039 441.63365853 304.49601181 448.15980154 301.90039062 454.32440186 C293.82645063 462.19649335 284.66186815 461.310698 274.15234375 461.21600342 C272.39749172 461.21487408 270.6426378 461.21551049 268.88778687 461.21777344 C264.14031116 461.21891814 259.39324212 461.1954484 254.64586067 461.16747761 C249.67843834 461.14242323 244.71100604 461.14011877 239.74353027 461.13537598 C230.34430935 461.12295806 220.94527518 461.09015246 211.54613638 461.04997802 C200.84243241 461.00522346 190.13871939 460.983264 179.43494511 460.96319628 C157.42332002 460.9214188 135.41187368 460.85028126 113.40039062 460.76190186 C113.40039062 469.34190186 113.40039062 477.92190186 113.40039062 486.76190186 C106.65325632 486.76190186 106.65325632 486.76190186 102.97460938 484.31268311 C102.17732422 483.79383545 101.38003906 483.27498779 100.55859375 482.74041748 C99.74326172 482.19063232 98.92792969 481.64084717 98.08789062 481.07440186 C96.46839935 480.00556359 94.84731026 478.93914225 93.22460938 477.87518311 C92.4336084 477.35520752 91.64260742 476.83523193 90.82763672 476.29949951 C87.11341014 473.94663299 83.2752138 471.8367247 79.40039062 469.76190186 C78.93777832 470.06370361 78.47516602 470.36550537 77.99853516 470.67645264 C73.5151321 473.59818337 69.02272945 476.50547872 64.52050781 479.39813232 C62.75070434 480.53656187 60.98516849 481.68162238 59.22070312 482.82830811 C57.94839844 483.63074951 57.94839844 483.63074951 56.65039062 484.44940186 C55.93367188 484.90701904 55.21695313 485.36463623 54.47851562 485.83612061 C51.96509421 486.9558215 50.12367678 487.00736812 47.40039062 486.76190186 C46.40039062 485.76190186 46.40039062 485.76190186 46.28686523 483.35345459 C46.29472046 481.79026489 46.29472046 481.79026489 46.30273438 480.19549561 C46.30756836 478.50843506 46.30756836 478.50843506 46.3125 476.78729248 C46.32506836 475.01128662 46.32506836 475.01128662 46.33789062 473.19940186 C46.34240234 472.01153076 46.34691406 470.82365967 46.3515625 469.59979248 C46.36339388 466.6537796 46.37987776 463.70786505 46.40039062 460.76190186 C45.25151367 460.7776123 44.10263672 460.79332275 42.91894531 460.80950928 C38.60261212 460.86435182 34.28630886 460.89844689 29.96972656 460.92669678 C28.11160073 460.9416609 26.25350946 460.96203958 24.39550781 460.98822021 C6.112076 461.23914998 -9.41721196 459.46147456 -23.27148438 446.34783936 C-34.16969729 434.24277736 -36.0523779 421.20641695 -35.98728943 405.55499268 C-35.99146697 403.9159396 -35.99694679 402.27688942 -36.00360924 400.63784456 C-36.01802713 396.1532613 -36.01383061 391.66886239 -36.00644243 387.18426919 C-36.00170406 382.34029189 -36.01422643 377.49635409 -36.02445984 372.65238953 C-36.04163934 363.17071674 -36.0424897 353.68911026 -36.03724694 344.20742595 C-36.03320287 336.50036311 -36.0346516 328.79331984 -36.03999519 321.08625793 C-36.04074362 319.98868165 -36.04149204 318.89110537 -36.04226314 317.76026919 C-36.04379464 315.53045284 -36.04533298 313.3006365 -36.04687811 311.07082015 C-36.06059976 290.16967051 -36.05516752 269.26855831 -36.04369289 248.36740953 C-36.03375811 229.25001171 -36.04670605 210.13271065 -36.07062709 191.01532775 C-36.09501384 171.37759731 -36.10462717 151.73991194 -36.09797436 132.10216665 C-36.09448156 121.08019287 -36.09671842 110.05829351 -36.11422539 99.03633118 C-36.12894191 89.65496984 -36.1295898 80.27373537 -36.11215448 70.89237654 C-36.10363815 66.10730908 -36.10151052 61.32246832 -36.11680603 56.53741264 C-36.13064381 52.1541048 -36.1259017 47.77121806 -36.10656679 43.38793463 C-36.10280374 41.80529477 -36.1057376 40.22262126 -36.11617845 38.64001137 C-36.18719129 27.04853227 -35.04016429 17.28514581 -26.75351715 8.57044911 C-18.69502614 1.80406757 -10.26574724 -0.12394235 0 0 Z M-19.59960938 20.76190186 C-22.1090427 25.00894993 -22.97398373 28.0995937 -22.96875286 33.01312065 C-22.97472601 34.25470558 -22.98069915 35.49629051 -22.9868533 36.77549922 C-22.97829529 38.14522588 -22.96945852 39.51495082 -22.96037292 40.88467407 C-22.96168156 42.34590864 -22.96430905 43.80714252 -22.96814042 45.26837265 C-22.97484595 49.27966246 -22.96285186 53.29071179 -22.94780624 57.30197096 C-22.9348511 61.62910417 -22.93923497 65.95622382 -22.94151306 70.28337097 C-22.94308613 77.77909432 -22.93367345 85.27473932 -22.91679955 92.77044296 C-22.89241862 103.60796018 -22.8846052 114.44543951 -22.88083557 125.28298117 C-22.87426967 142.86614548 -22.85430472 160.44926803 -22.82592773 178.03240967 C-22.79839077 195.11281119 -22.77715541 212.19320137 -22.7644043 229.27362061 C-22.76361613 230.3264537 -22.76282796 231.3792868 -22.7620159 232.46402393 C-22.75810079 237.74577721 -22.75430967 243.02753056 -22.75058019 248.30928397 C-22.71947995 292.12685219 -22.66664035 335.94437487 -22.59960938 379.76190186 C-22.05369644 379.34744812 -21.50778351 378.93299438 -20.94532776 378.50598145 C-20.22739548 377.96362854 -19.5094632 377.42127563 -18.76977539 376.86248779 C-18.05886246 376.32428406 -17.34794952 375.78608032 -16.61549377 375.23156738 C-14.34885967 373.57909464 -12.05790709 372.24073814 -9.53710938 371.01190186 C-8.76238281 370.62518311 -7.98765625 370.23846436 -7.18945312 369.84002686 C-0.11641131 366.89559316 5.95017804 366.47347913 13.55488586 366.50120544 C14.67018195 366.4973799 15.78547803 366.49355435 16.93457097 366.48961288 C20.66712211 366.479304 24.39951883 366.483271 28.13208008 366.48724365 C30.80964161 366.48289619 33.48719187 366.47777741 36.16474915 366.47175598 C42.67831818 366.45902222 49.19184597 366.4572134 55.70542536 366.45955624 C60.99700829 366.46134 66.28857871 366.45958854 71.58016014 366.4553318 C72.71021871 366.45443902 72.71021871 366.45443902 73.86310675 366.4535282 C75.39354856 366.45231646 76.92399035 366.45110232 78.45443215 366.44988582 C92.79661128 366.4390167 107.13876688 366.4411706 121.48094734 366.44727067 C134.61269597 366.45244687 147.74437058 366.44116476 160.87610457 366.42217245 C174.3573908 366.40282371 187.83864196 366.39453234 201.31994218 366.3982957 C208.8898517 366.40021129 216.45969811 366.39768494 224.02959633 366.38358116 C230.46915228 366.37170457 236.9086062 366.37022085 243.34816346 366.38237133 C246.63554475 366.38828461 249.92269922 366.38768289 253.21007538 366.37736893 C256.76716474 366.36700901 260.32374342 366.37491501 263.8808136 366.38768005 C264.92855101 366.38030577 265.97628843 366.37293148 267.05577546 366.36533374 C268.00292427 366.37254028 268.95007307 366.37974682 269.92592335 366.38717175 C271.15849958 366.38708922 271.15849958 366.38708922 272.41597635 366.38700503 C273.07083306 366.51072098 273.72568977 366.63443694 274.40039062 366.76190186 C276.40039062 369.76190186 276.40039062 369.76190186 276.08789062 372.88690186 C275.40039062 375.76190186 275.40039062 375.76190186 274.40039062 376.76190186 C273.00334448 376.86160338 271.60129727 376.89219917 270.20070076 376.89498043 C268.83369016 376.901342 268.83369016 376.901342 267.43906319 376.90783209 C266.42615995 376.90744595 265.4132567 376.90705982 264.36965942 376.90666199 C262.76905822 376.91195226 262.76905822 376.91195226 261.13612163 376.9173494 C257.53035938 376.92809546 253.92462348 376.93172765 250.31884766 376.93548584 C247.74544664 376.94178681 245.17204673 376.9485521 242.59864807 376.95574951 C237.04055249 376.9707126 231.48245828 376.98224667 225.92435074 376.99169731 C217.87619109 377.00555932 209.82806297 377.02674717 201.77992593 377.05012584 C188.70778362 377.08808162 175.63563555 377.1230326 162.56347656 377.15472412 C161.78039579 377.15662461 160.99731503 377.15852511 160.19050454 377.16048319 C149.09527417 377.18727367 138.00003942 377.21115555 126.90480004 377.23386819 C125.73472676 377.23626414 125.73472676 377.23626414 124.54101562 377.2387085 C123.76191795 377.24030196 122.98282027 377.24189543 122.18011357 377.24353718 C109.17017303 377.27034399 96.1602657 377.30476401 83.15036094 377.34536225 C75.12824518 377.37009071 67.10616511 377.3884434 59.08401732 377.39851785 C52.92593046 377.40681152 46.76791277 377.42533554 40.60986137 377.44757843 C38.0892241 377.4550371 35.56857422 377.45913398 33.04792595 377.45957375 C29.59883999 377.46066113 26.15000166 377.47395299 22.70095825 377.49015808 C21.71036223 377.48754123 20.7197662 377.48492437 19.69915211 377.48222822 C6.3920563 377.57945013 -4.91811705 380.08040953 -14.59960938 389.76190186 C-21.41106978 399.49722656 -23.64925387 407.87467798 -22.59960938 419.76190186 C-20.09113362 430.16637515 -13.59471382 438.18354251 -4.59960938 443.76190186 C2.33560843 447.43011623 8.74535893 447.90743916 16.41992188 447.85955811 C17.27849289 447.85814316 18.1370639 447.85672821 19.02165222 447.85527039 C21.75210111 447.84969243 24.4824667 447.83714399 27.21289062 447.82440186 C29.06900923 447.81938401 30.92512912 447.8148216 32.78125 447.81072998 C37.32102112 447.80058297 41.86061309 447.7810033 46.40039062 447.76190186 C46.40039062 439.51190186 46.40039062 431.26190186 46.40039062 422.76190186 C43.84804687 422.71291748 41.29570312 422.66393311 38.66601562 422.61346436 C36.19037075 422.55943335 33.71482156 422.50213422 31.23925781 422.44451904 C29.52058052 422.40626859 27.80182424 422.37140882 26.08300781 422.34002686 C23.61039023 422.29429058 21.13831449 422.23631102 18.66601562 422.17596436 C17.89920471 422.16441315 17.1323938 422.15286194 16.34234619 422.14096069 C9.48657559 421.95188027 9.48657559 421.95188027 6.40039062 419.76190186 C3.92187141 415.63103649 4.29469792 412.35477926 5.40039062 407.76190186 C7.29572938 405.17734901 8.28865579 404.7991468 11.40039062 403.76190186 C14.08305487 403.65566316 16.74452811 403.60083388 19.42773438 403.58612061 C21.04037772 403.56292789 22.65300798 403.53881078 24.265625 403.51385498 C26.80469598 403.47870958 29.34328343 403.4493734 31.88256836 403.43597412 C34.33571555 403.42050061 36.78745832 403.38030642 39.24023438 403.33612061 C39.99763412 403.33802902 40.75503387 403.33993744 41.53538513 403.34190369 C43.95838721 403.32820511 43.95838721 403.32820511 47.40039062 402.76190186 C48.32840233 401.77151665 48.32840233 401.77151665 49.27516174 400.76112366 C52.01256877 398.18602041 53.40364867 398.25602519 57.11523438 398.24432373 C58.2632251 398.23171509 59.41121582 398.21910645 60.59399414 398.20611572 C61.82947998 398.21421265 63.06496582 398.22230957 64.33789062 398.23065186 C65.61011475 398.22682495 66.88233887 398.22299805 68.19311523 398.21905518 C70.8835289 398.21633259 73.57248933 398.22170372 76.26269531 398.24041748 C79.70633808 398.26320824 83.14873389 398.25008217 86.59233093 398.22612762 C89.8825619 398.20817633 93.17264337 398.22075465 96.46289062 398.23065186 C97.69837646 398.22255493 98.9338623 398.21445801 100.20678711 398.20611572 C101.92877319 398.22502869 101.92877319 398.22502869 103.68554688 398.24432373 C104.69496338 398.2475061 105.70437988 398.25068848 106.74438477 398.25396729 C109.40039063 398.76190186 109.40039063 398.76190186 111.12347031 400.76358414 C114.28270664 403.53625821 116.32168588 403.25492406 120.48712158 403.24291992 C121.20107739 403.24633762 121.9150332 403.24975532 122.65062404 403.25327659 C125.04320718 403.25986582 127.43466865 403.23786364 129.82714844 403.21600342 C131.54200209 403.21487516 133.25685768 403.21550838 134.97171021 403.21777344 C139.62851853 403.21892236 144.28491577 403.19538428 148.94162846 403.16747761 C153.80764247 403.14249361 158.67366563 403.14012432 163.53973389 403.13537598 C172.75492638 403.12293737 181.96992934 403.09010377 191.18503833 403.04997802 C201.67583581 403.00528786 212.16664228 402.9832802 222.65751123 402.96319628 C244.23857687 402.92137193 265.81947181 402.85100265 287.40039062 402.76190186 C287.58214844 401.68553467 287.76390625 400.60916748 287.95117188 399.50018311 C288.2048848 398.02488943 288.45880233 396.54963093 288.71289062 395.07440186 C288.83083984 394.37250732 288.94878906 393.67061279 289.0703125 392.94744873 C289.66324346 389.52669322 290.29859234 386.15891594 291.16142702 382.79385406 C293.29872517 374.45441889 293.82992558 366.70693578 293.7947998 358.1169281 C293.79970053 356.68422417 293.80589575 355.25152419 293.81325769 353.81883079 C293.82952892 349.91864212 293.82736582 346.01865727 293.82188272 342.11844671 C293.81919678 337.89828081 293.83377294 333.67816734 293.84597778 329.45802307 C293.86696344 321.20667745 293.87157677 312.9554022 293.8697899 304.70403304 C293.8684796 297.99769054 293.87230003 291.2913699 293.87971497 284.58503151 C293.88181424 282.64959155 293.88391184 280.71415158 293.88600779 278.77871162 C293.88705131 277.8152845 293.88809484 276.85185738 293.88916999 275.8592355 C293.90804228 257.66831736 293.90703049 239.47743962 293.90020066 221.28651575 C293.89461888 204.64784445 293.91548306 188.00932682 293.94856113 171.37069144 C293.98229161 154.27088035 293.99746784 137.17114292 293.9928441 120.07129794 C293.99059988 110.47686946 293.99583689 100.88258324 294.02073669 91.28818321 C294.04174067 83.12588285 294.04535006 74.96380293 294.0264371 66.80149355 C294.01727636 62.63834163 294.01614677 58.47560087 294.03679276 54.31248093 C294.05549182 50.49983407 294.0510122 46.68793546 294.02824694 42.87531719 C294.02207821 40.84680787 294.04046105 38.81826946 294.05978346 36.78984278 C293.97262382 27.83295269 292.30883932 22.7759843 286.08789062 16.38690186 C279.44755949 12.37181791 272.20670044 12.47650707 264.68164062 12.52139282 C263.62533227 12.51968397 262.56902391 12.51797512 261.48070621 12.51621449 C257.95386456 12.51292963 254.42721466 12.52390688 250.90039062 12.53485107 C248.36722315 12.5354154 245.83405535 12.5350982 243.30088806 12.53396606 C237.85363338 12.53351115 232.40644006 12.53917084 226.959198 12.55044174 C219.08350717 12.56672671 211.20783949 12.57190781 203.33213365 12.57441773 C190.55295224 12.57879013 177.77379643 12.59208689 164.99462891 12.61102295 C152.58414843 12.62939352 140.17367493 12.64354426 127.76318359 12.65203857 C126.61484948 12.65282674 126.61484948 12.65282674 125.4433167 12.65363084 C121.6025755 12.656241 117.76183426 12.65876839 113.92109299 12.66125464 C82.08084009 12.68197299 50.24061935 12.71733527 18.40039062 12.76190186 C18.39941382 13.46114865 18.39843701 14.16039545 18.3974306 14.88083154 C18.33920391 56.29093956 18.26544162 97.70099439 18.17140434 139.11103733 C18.1601357 144.07921262 18.14899732 149.0473882 18.13793945 154.01556396 C18.13573577 155.00467052 18.13353209 155.99377708 18.13126162 157.01285657 C18.09585464 173.04457402 18.07100973 189.07629142 18.05004361 205.10803352 C18.02830861 221.5486298 17.99528019 237.98917519 17.95168906 254.42972821 C17.92513259 264.58074341 17.90746669 274.73169514 17.90104458 284.88274338 C17.89580289 291.83640272 17.87962715 298.78998208 17.85472497 305.74359862 C17.84066799 309.76011281 17.8315547 313.77648371 17.83538246 317.79302406 C17.83877718 321.46639371 17.82851844 325.13945661 17.80715511 328.81276336 C17.7993412 330.77894694 17.80635653 332.74517195 17.81380767 334.71135694 C17.80435113 335.87033402 17.79489458 337.0293111 17.78515148 338.2234087 C17.78325288 339.22776897 17.78135428 340.23212925 17.77939814 341.26692468 C17.40039062 343.76190186 17.40039062 343.76190186 16.10290557 345.61977643 C14.40039062 346.76190186 14.40039062 346.76190186 10.77539062 346.57440186 C9.66164062 346.30627686 8.54789063 346.03815186 7.40039062 345.76190186 C6.09898133 343.15908326 6.26944051 341.26275947 6.26172543 338.34645653 C6.25625098 337.18947049 6.25077654 336.03248446 6.2451362 334.84043825 C6.24415809 333.55836004 6.24317999 332.27628184 6.24217224 330.95535278 C6.23760914 329.58831627 6.23260949 328.22128115 6.22720867 326.85424769 C6.21358949 323.08484852 6.20619831 319.31545839 6.19978201 315.54604101 C6.19179462 311.48604104 6.17809116 307.42605999 6.16506958 303.36607361 C6.1432832 296.32758551 6.12514664 289.28909552 6.10946465 282.25059128 C6.08678567 272.07400163 6.05864013 261.89743294 6.02914537 251.72086103 C5.98144524 235.21143856 5.93818763 218.70200755 5.89770508 202.19256592 C5.85836246 186.15186904 5.81693921 170.11117977 5.77270508 154.07049561 C5.76998081 153.08232552 5.76725653 152.09415543 5.76444971 151.07604079 C5.75077043 146.11885438 5.73705012 141.16166808 5.7233094 136.20448184 C5.60930659 95.05697101 5.50250567 53.90944379 5.40039062 12.76190186 C3.83282168 12.7295125 2.26505431 12.7066598 0.69726562 12.68768311 C-0.17575195 12.67390625 -1.04876953 12.66012939 -1.94824219 12.64593506 C-9.09074991 12.95833756 -14.66473592 15.70953142 -19.59960938 20.76190186 Z M113.40039062 422.76190186 C113.40039062 431.01190186 113.40039062 439.26190186 113.40039062 447.76190186 C136.33066819 447.78501838 159.26094296 447.80287981 182.19122982 447.81371403 C192.83737013 447.81887751 203.48350308 447.82592121 214.12963867 447.83734131 C223.40525984 447.84728654 232.68087567 447.8537549 241.95650202 447.85599035 C246.87106743 447.85729773 251.7856176 447.8603853 256.70017815 447.86763191 C261.32033411 447.8743896 265.94046846 447.87651933 270.56062889 447.87500954 C272.261458 447.87528598 273.96228779 447.87729259 275.66311264 447.88110733 C277.974934 447.88604067 280.28667244 447.88490149 282.59849548 447.88215637 C283.89545821 447.88307817 285.19242094 447.88399996 286.52868557 447.88494968 C289.29713259 448.09055588 289.29713259 448.09055588 290.40039062 446.76190186 C290.36124799 444.98843935 290.24146351 443.21663607 290.08789062 441.44940186 C290.00925781 440.48389404 289.930625 439.51838623 289.84960938 438.52362061 C289.21914576 433.24417313 288.27449325 428.00651763 287.40039062 422.76190186 C229.98039062 422.76190186 172.56039062 422.76190186 113.40039062 422.76190186 Z " fill="#ffffff" transform="translate(120.599609375,9.23809814453125)"/>
<path d="M0 0 C1.24778732 -0.0071553 2.49557465 -0.01431061 3.78117371 -0.02168274 C5.17172216 -0.02452314 6.56227089 -0.02723486 7.95281982 -0.02983093 C9.411343 -0.03609465 10.86986458 -0.04274136 12.3283844 -0.04974365 C16.29754495 -0.06716301 20.26669345 -0.07770817 24.23588276 -0.08594918 C26.71542127 -0.09109787 29.19495602 -0.09717369 31.67449188 -0.10346031 C39.43151614 -0.12251589 47.18853087 -0.13674566 54.94557405 -0.14507228 C63.9012058 -0.15484396 72.85659034 -0.18116001 81.81213498 -0.22157317 C88.73280843 -0.2517323 95.65341101 -0.26654099 102.57414889 -0.26985329 C106.70814648 -0.27220422 110.84188007 -0.28116976 114.97580719 -0.30631447 C118.86645855 -0.32959654 122.75667214 -0.33382811 126.64737511 -0.32355309 C128.07359714 -0.32305762 129.49984073 -0.32938123 130.92599678 -0.34310913 C144.37643373 -0.46531176 144.37643373 -0.46531176 149.14324951 4.14717102 C150.81688048 6.85072874 151.92754062 9.49789798 152.92840576 12.51045227 C155.26415263 19.1739033 158.04274492 23.42174514 164.14324951 27.14717102 C167.4584884 28.52951077 170.76452094 29.73160017 174.19012451 30.81123352 C177.65765752 32.37987941 179.0670489 33.99406262 181.14324951 37.14717102 C182.35315037 40.77687358 182.2946324 44.10488823 182.29714966 47.88397217 C182.30372304 49.07802275 182.30372304 49.07802275 182.31042922 50.29619557 C182.32381909 52.97235317 182.32999641 55.64847785 182.33612061 58.32466125 C182.34402119 60.23977304 182.35229012 62.15488334 182.36090088 64.06999207 C182.38711793 70.36523517 182.40242452 76.66048494 182.41668701 82.95576477 C182.42204612 85.12102322 182.42742363 87.28628163 182.43281937 89.45153999 C182.45444432 98.45463579 182.47318331 107.4577298 182.48444176 116.46084499 C182.50069745 129.37596121 182.53391897 142.29077737 182.5908426 155.20578045 C182.6294836 164.28098767 182.6490673 173.35611443 182.65436232 182.43140179 C182.65802273 187.85531802 182.67011781 193.2789142 182.70246506 198.70274162 C182.73244424 203.80242281 182.7388939 208.90158856 182.7270813 214.00133896 C182.72685974 215.87508499 182.73523277 217.74885424 182.75273514 219.62251854 C182.7753006 222.17676844 182.76719204 224.72912904 182.75125122 227.28338623 C182.76513331 228.02842342 182.7790154 228.77346062 182.79331815 229.54107469 C182.73528188 233.3035516 182.41681693 234.85528475 179.80446815 237.64256382 C177.14324951 239.14717102 177.14324951 239.14717102 173.95574951 239.08467102 C171.14324951 238.14717102 171.14324951 238.14717102 169.14324951 235.14717102 C168.95425184 232.56084579 168.88233548 230.08339173 168.90274048 227.49734497 C168.90103163 226.71073964 168.89932278 225.92413432 168.89756215 225.11369246 C168.89425958 222.46956818 168.90528349 219.82569588 168.91619873 217.18159485 C168.91676268 215.28955084 168.91644661 213.3975064 168.91531372 211.50546265 C168.91473857 206.36113813 168.92651915 201.21690638 168.94046164 196.07260346 C168.95294195 190.69940804 168.95413736 185.32621062 168.95651245 179.95300293 C168.96273517 169.77453327 168.97915669 159.59610643 168.99921143 149.41765565 C169.02154582 137.83135543 169.03255766 126.2450532 169.0426023 114.65873682 C169.06352223 90.82152445 169.09871358 66.98435013 169.14324951 43.14717102 C167.87489258 42.83868225 166.60653564 42.53019348 165.29974365 42.21235657 C156.19047652 39.99680782 148.55655755 34.71811419 143.63543701 26.68623352 C141.14346465 21.94436611 140.04867098 18.57969981 139.14324951 13.14717102 C92.61324951 13.14717102 46.08324951 13.14717102 -1.85675049 13.14717102 C-2.18675049 15.45717102 -2.51675049 17.76717102 -2.85675049 20.14717102 C-7.20496811 29.95254768 -13.80071559 36.53789624 -23.32940674 41.20185852 C-25.85675049 42.14717102 -25.85675049 42.14717102 -31.85675049 43.14717102 C-31.85675049 114.75717102 -31.85675049 186.36717102 -31.85675049 260.14717102 C-28.88675049 260.80717102 -25.91675049 261.46717102 -22.85675049 262.14717102 C-13.48269308 266.49890239 -6.42290749 274.70398054 -2.45050049 284.10420227 C-1.85675049 286.14717102 -1.85675049 286.14717102 -1.85675049 290.14717102 C44.67324951 290.14717102 91.20324951 290.14717102 139.14324951 290.14717102 C139.80324951 287.17717102 140.46324951 284.20717102 141.14324951 281.14717102 C145.13645368 272.67750868 152.49982291 265.75386715 160.99090576 261.86982727 C164.90282369 260.5563884 169.01880177 259.74424984 173.14324951 260.14717102 C174.91278076 261.42451477 174.91278076 261.42451477 176.14324951 263.14717102 C176.80153756 269.29119276 176.80153756 269.29119276 174.88153076 271.78779602 C172.90022011 273.33722548 171.38661337 273.79483307 168.95574951 274.39717102 C162.75578451 276.36621528 157.90523363 279.75212846 154.86199951 285.61592102 C153.8723169 288.10512273 152.98767987 290.60547765 152.14324951 293.14717102 C150.51359055 297.14724303 149.01311904 299.96300921 145.29618835 302.31451416 C140.1464476 304.30619496 134.32627105 303.69866185 128.87957764 303.66474915 C127.42045901 303.67017337 125.96134586 303.67729772 124.50224304 303.68598938 C120.54970501 303.70419021 116.59758565 303.69716883 112.64504051 303.68447304 C108.50384793 303.67432847 104.36269061 303.68374276 100.22149658 303.6900177 C93.26777731 303.69728988 86.31422811 303.68771774 79.36053467 303.6686554 C71.32720768 303.64688739 63.29428679 303.65393907 55.26096964 303.67596102 C48.35716739 303.69412732 41.45348722 303.69666735 34.54966879 303.68620634 C30.42918843 303.67997814 26.3088988 303.67911713 22.18843079 303.69235229 C18.31407779 303.7039282 14.44024711 303.69585387 10.56595039 303.67277527 C9.14619882 303.66749739 7.7264031 303.66898625 6.30666924 303.67782593 C-7.08109638 303.75348131 -7.08109638 303.75348131 -11.85675049 299.14717102 C-13.53038146 296.4436133 -14.64104159 293.79644406 -15.64190674 290.78388977 C-17.97765361 284.12043874 -20.75624589 279.8725969 -26.85675049 276.14717102 C-30.17198937 274.76483127 -33.47802192 273.56274187 -36.90362549 272.48310852 C-40.3711585 270.91446263 -41.78054988 269.30027942 -43.85675049 266.14717102 C-45.16746535 262.21502644 -45.00480628 258.46678368 -45.00392151 254.36756897 C-45.00943654 253.00518423 -45.00943654 253.00518423 -45.01506299 251.61527658 C-45.02611271 248.55917062 -45.02994585 245.50309866 -45.03375244 242.44697571 C-45.04001608 240.26087333 -45.04666279 238.07477201 -45.05366516 235.88867188 C-45.07108318 229.94022582 -45.08162896 223.99178781 -45.08987069 218.04332256 C-45.09501879 214.32838743 -45.10109459 210.61345479 -45.10738182 206.89852142 C-45.12643551 195.27953857 -45.14066669 183.66056209 -45.14899379 172.04156661 C-45.14996231 170.70420948 -45.15093656 169.36685236 -45.1519165 168.02949524 C-45.15240024 167.36612082 -45.15288398 166.70274641 -45.15338238 166.01926973 C-45.16168234 155.27353587 -45.18701921 144.52791334 -45.21949718 133.78222808 C-45.25257655 122.74752481 -45.27024737 111.71288099 -45.2737748 100.67812848 C-45.27612763 94.48343682 -45.28511868 88.28892116 -45.31023598 82.09427643 C-45.33348337 76.26662047 -45.3377632 70.43925681 -45.32747459 64.61156654 C-45.32697833 62.47301831 -45.33332539 60.33445584 -45.34703064 58.19595146 C-45.36470145 55.27518553 -45.35766678 52.35547404 -45.34449768 49.43470764 C-45.35546693 48.58946242 -45.36643617 47.7442172 -45.37773782 46.87335849 C-45.31567084 41.16722982 -44.13929305 37.84409636 -40.85675049 33.14717102 C-37.6004213 30.67594385 -34.37335951 29.60262209 -30.48175049 28.45967102 C-24.5365474 26.32611024 -21.15831284 23.52524232 -17.85675049 18.14717102 C-16.47601294 15.08812318 -15.24725493 12.00019749 -14.04815674 8.86592102 C-11.12650021 2.19879661 -7.08859668 0.02781366 0 0 Z " fill="#ffffff" transform="translate(207.85675048828125,46.85282897949219)"/>
<path d="M0 0 C1 1 1 1 1.2890625 3.3046875 C0.91882467 6.75690513 -0.17648319 7.71316509 -2.625 10.125 C-14.14361904 22.41695388 -18.5808067 38.15658185 -18.27734375 54.6953125 C-17.55986804 70.55116863 -10.02528926 84.84267135 1 96 C8.56482444 102.24582941 16.69060219 106.85278881 26 110 C27.0828125 110.36738281 27.0828125 110.36738281 28.1875 110.7421875 C44.34618415 115.2103085 61.66799222 111.12568912 75.921875 103.0859375 C80.29364871 100.12333958 83.90281723 96.6373236 87.5625 92.84375 C90 91 90 91 92.8125 91.21875 C93.534375 91.4765625 94.25625 91.734375 95 92 C96.90573592 96.94300254 94.46608802 100.91776734 92.578125 105.5546875 C88.26390988 114.97334526 82.23212939 122.64143478 75 130 C74.38640625 130.62648437 73.7728125 131.25296875 73.140625 131.8984375 C57.22243776 146.932281 36.55073175 151.77938766 15.2890625 151.3046875 C-5.56585689 150.39795187 -23.42205985 140.13594206 -37.6875 125.3125 C-51.1883336 109.66215979 -57.91391354 89.21072964 -56.84375 68.60546875 C-55.09826974 46.99720546 -45.32491687 27.56584043 -28.875 13.3125 C-21.20632894 7.28401213 -10.06410919 -0.52968996 0 0 Z " fill="#ffffff" transform="translate(257,123)"/>
<path d="M0 0 C2.37451172 0.25439453 2.37451172 0.25439453 5 1 C6.18408203 2.71826172 6.18408203 2.71826172 7.0078125 4.9296875 C10.43870622 13.90721033 10.43870622 13.90721033 17.26806641 20.11035156 C22.13395094 21.43058961 27.04438833 21.77867961 32.07397461 21.78320312 C34 22 34 22 37 24 C36.42828156 27.28285584 35.55196184 28.76775025 33.05859375 30.953125 C32.47529297 31.49066406 31.89199219 32.02820313 31.29101562 32.58203125 C30.06090394 33.68900214 28.82131312 34.78553415 27.57226562 35.87109375 C24.2510959 38.96790982 23.08838691 40.26514685 22.52734375 44.9296875 C22.64461841 46.29053151 22.80273451 47.64843199 23 49 C23.08080811 49.66257813 23.16161621 50.32515625 23.24487305 51.0078125 C23.6790066 54.28417042 24.23239539 57.54191211 24.7578125 60.8046875 C24.83773437 61.85914063 24.91765625 62.91359375 25 64 C24.34 64.66 23.68 65.32 23 66 C17.58220334 65.71536938 13.04933892 62.35472384 8.52734375 59.61914062 C4.72455603 57.40292925 4.72455603 57.40292925 0.47265625 57.53125 C-0.34332031 58.0159375 -1.15929687 58.500625 -2 59 C-3.12535156 59.58136719 -4.25070312 60.16273438 -5.41015625 60.76171875 C-7.25185304 61.72925525 -9.0891265 62.70200569 -10.91601562 63.69726562 C-15.46760562 66.06409242 -15.46760562 66.06409242 -18.43359375 65.70703125 C-18.95050781 65.47371094 -19.46742188 65.24039063 -20 65 C-20.27745665 56.95375723 -20.27745665 56.95375723 -19.0625 52.77734375 C-17.99181975 48.82028801 -17.46648775 46.08739223 -18 42 C-20.90446499 37.64773681 -24.9034677 34.4100276 -28.8671875 31.05859375 C-31.94207769 28.37751118 -31.94207769 28.37751118 -32.4453125 25.09765625 C-32.29835938 24.40542969 -32.15140625 23.71320313 -32 23 C-30.783125 22.71125 -29.56625 22.4225 -28.3125 22.125 C-27.49265625 21.92003906 -26.6728125 21.71507812 -25.828125 21.50390625 C-23 21 -23 21 -19.859375 21.08984375 C-15.89050928 21.05692662 -13.57289184 20.80366468 -10 19 C-5.52938648 13.40122225 -2.73234641 6.5745035 0 0 Z " fill="#ffffff" transform="translate(300,132)"/>
</svg>